<?xml version="1.0" encoding="utf-8"?>
<!-- Generator: Adobe Illustrator 23.0.1, SVG Export Plug-In . SVG Version: 6.00 Build 0)  -->
<svg version="1.1" id="Base" xmlns="http://www.w3.org/2000/svg" xmlns:xlink="http://www.w3.org/1999/xlink" x="0px" y="0px"
	 viewBox="0 0 500 520" style="enable-background:new 0 0 500 520;" xml:space="preserve">
<style type="text/css">
	.st0{fill:#E1E1E0;}
	.st1{fill:none;stroke:#E1E1E0;stroke-width:2;stroke-miterlimit:10;}
	.st2{fill:#13110C;}
</style>
<g>
	<path class="st0" d="M258.7,47.7c-4.8-2.8-12.6-2.8-17.3,0L70.5,146.4c-4.8,2.8-8.7,9.5-8.7,15v197.3c0,5.5,3.9,12.2,8.7,15
		l170.9,98.6c4.8,2.8,12.6,2.8,17.3,0l170.9-98.6c4.8-2.8,8.7-9.5,8.7-15V161.4c0-5.5-3.9-12.2-8.7-15L258.7,47.7z"/>
</g>
<g>
	<path class="st1" d="M258.7,4.2c-4.8-2.7-12.6-2.7-17.3,0L32.8,124.6c-4.8,2.8-8.7,9.5-8.7,15v240.8c0,5.5,3.9,12.2,8.7,15
		l208.5,120.4c4.8,2.8,12.6,2.8,17.3,0l208.5-120.4c4.8-2.8,8.7-9.5,8.7-15V139.6c0-5.5-3.9-12.2-8.7-15L258.7,4.2z"/>
</g>
<g>
	<path class="st1" d="M258.7,26c-4.8-2.8-12.6-2.8-17.3,0L51.7,135.5c-4.8,2.8-8.7,9.5-8.7,15v219c0,5.5,3.9,12.2,8.7,15L241.3,494
		c4.8,2.8,12.6,2.8,17.3,0l189.7-109.5c4.8-2.8,8.7-9.5,8.7-15v-219c0-5.5-3.9-12.2-8.7-15L258.7,26z"/>
</g>
<g>
	<path class="st2" d="M323.1,169.4h-39.4v-5.6c0-9.3-7.6-16.9-16.9-16.9h-33.8c-9.3,0-16.9,7.6-16.9,16.9v5.6h-39.4
		c-9.3,0-16.9,7.6-16.9,16.9v101.3c0,9.3,7.6,16.9,16.9,16.9h146.3c9.3,0,16.9-7.6,16.9-16.9V186.3
		C340,176.9,332.5,169.4,323.1,169.4z M233.1,163.8h33.8v5.6h-33.8V163.8z M179,287.5c-1.2,0-2.1-0.9-2.1-2.1v-97
		c0-1.2,0.9-2.1,2.1-2.1h142c1.2,0,2.1,0.9,2.1,2.1v97c0,1.2-0.9,2.1-2.1,2.1H179z"/>
	<path class="st2" d="M226.6,221.4l23-9.6v49.9C237.1,254,228,240.1,226.6,221.4L226.6,221.4z M288.3,216.3
		c0,35.6-21.9,55.5-35.7,61.2c-1.9,0.8-4,0.8-5.9,0c-17.2-7.2-35.7-29.3-35.7-61.2c0-3.1,1.9-5.9,4.8-7.1l30.9-12.9
		c1.9-0.8,4-0.8,5.9,0l30.9,12.9C286.4,210.4,288.3,213.2,288.3,216.3z M280.6,216.3l-30.9-12.9l-30.9,12.9
		c0,27.3,15.2,47.6,30.9,54.1C264.7,264.1,280.6,244.3,280.6,216.3z"/>
</g>
<g>
	<path d="M113.8,334.8h10c6.5,0,11.2,2,11.2,7.7c0,3-1.7,5.9-5.4,6.8v0.2c4.5,0.8,7,3.2,7,7.4c0,6.3-5.1,9.2-12,9.2h-10.8V334.8z
		 M123.3,347.8c4.4,0,6.2-1.7,6.2-4.6c0-2.9-2.1-4.1-6.1-4.1h-4.1v8.7H123.3z M124,361.9c4.6,0,7.2-1.7,7.2-5.3
		c0-3.3-2.5-4.8-7.2-4.8h-4.7v10.1H124z"/>
	<path d="M141.9,332.3h5.5v28.1c0,1.3,0.6,1.8,1.2,1.8c0.2,0,0.4,0,0.9-0.1l0.7,4.1c-0.7,0.3-1.6,0.5-2.9,0.5
		c-3.9,0-5.4-2.5-5.4-6.6V332.3z"/>
	<path d="M164.6,342c5.9,0,11.2,4.5,11.2,12.4c0,7.8-5.3,12.3-11.2,12.3c-5.9,0-11.2-4.5-11.2-12.3C153.4,346.6,158.7,342,164.6,342
		z M164.6,362.3c3.5,0,5.6-3.1,5.6-7.8c0-4.8-2.1-7.9-5.6-7.9s-5.5,3.1-5.5,7.9C159.1,359.1,161.1,362.3,164.6,362.3z"/>
	<path d="M191.6,342c3,0,5.3,1.2,6.9,2.7l-2.6,3.5c-1.2-1.1-2.5-1.7-4-1.7c-3.8,0-6.4,3.1-6.4,7.9c0,4.7,2.6,7.8,6.3,7.8
		c1.9,0,3.6-1,4.8-2l2.3,3.5c-2.2,2-5,3-7.7,3c-6.4,0-11.4-4.5-11.4-12.3C179.8,346.6,185.3,342,191.6,342z"/>
	<path d="M203.5,332.3h5.4v21.2h0.1l8.7-10.8h6l-8.1,9.6l8.9,14h-6l-6-10.2l-3.7,4.2v6h-5.4V332.3z"/>
	<path d="M223.9,352.1h11.4v4h-11.4V352.1z"/>
	<path d="M241.3,334.8h10.6c6.9,0,12,2.4,12,9.7c0,7-5.2,10.2-12,10.2h-5v11.5h-5.6V334.8z M251.5,350.2c4.7,0,6.9-1.9,6.9-5.7
		c0-3.9-2.4-5.2-6.9-5.2h-4.6v10.9H251.5z"/>
	<path d="M269.3,342.6h4.6l0.4,4.2h0.2c1.7-3.1,4.2-4.8,6.7-4.8c1.2,0,2,0.1,2.7,0.5l-1,4.8c-0.8-0.2-1.4-0.4-2.4-0.4
		c-1.9,0-4.1,1.3-5.6,4.8v14.4h-5.5V342.6z"/>
	<path d="M296.3,342c5.9,0,11.2,4.5,11.2,12.4c0,7.8-5.3,12.3-11.2,12.3c-5.9,0-11.2-4.5-11.2-12.3C285.2,346.6,290.5,342,296.3,342
		z M296.3,362.3c3.5,0,5.6-3.1,5.6-7.8c0-4.8-2.1-7.9-5.6-7.9s-5.5,3.1-5.5,7.9C290.8,359.1,292.9,362.3,296.3,362.3z"/>
	<path d="M313.9,347h-3.4v-4.1l3.6-0.2l0.7-6.4h4.6v6.4h6v4.4h-6v11.2c0,2.8,1.1,4.1,3.3,4.1c0.8,0,1.8-0.2,2.4-0.5l1,4.1
		c-1.3,0.4-2.9,0.9-4.8,0.9c-5.5,0-7.5-3.5-7.5-8.5V347z"/>
	<path d="M339.2,342c6.4,0,9.7,4.6,9.7,11.2c0,1.1-0.1,2-0.2,2.6h-15c0.5,4.3,3.2,6.7,7,6.7c2,0,3.7-0.6,5.5-1.7l1.9,3.5
		c-2.3,1.5-5.1,2.5-8.1,2.5c-6.5,0-11.6-4.6-11.6-12.3C328.4,346.7,333.7,342,339.2,342z M344.2,352.3c0-3.7-1.6-6-4.8-6
		c-2.8,0-5.2,2.1-5.7,6H344.2z"/>
	<path d="M364.5,342c3,0,5.3,1.2,6.9,2.7l-2.6,3.5c-1.2-1.1-2.5-1.7-4-1.7c-3.8,0-6.4,3.1-6.4,7.9c0,4.7,2.6,7.8,6.3,7.8
		c1.9,0,3.6-1,4.8-2l2.3,3.5c-2.2,2-5,3-7.7,3c-6.4,0-11.4-4.5-11.4-12.3C352.7,346.6,358.2,342,364.5,342z"/>
	<path d="M377.2,347h-3.4v-4.1l3.6-0.2l0.7-6.4h4.6v6.4h6v4.4h-6v11.2c0,2.8,1.1,4.1,3.3,4.1c0.8,0,1.8-0.2,2.4-0.5l1,4.1
		c-1.3,0.4-2.9,0.9-4.8,0.9c-5.5,0-7.5-3.5-7.5-8.5V347z"/>
</g>
</svg>
