<?xml version="1.0" encoding="utf-8"?>
<!-- Generator: Adobe Illustrator 23.0.1, SVG Export Plug-In . SVG Version: 6.00 Build 0)  -->
<svg version="1.1" xmlns="http://www.w3.org/2000/svg" xmlns:xlink="http://www.w3.org/1999/xlink" x="0px" y="0px"
	 viewBox="0 0 368.5 368.5" style="enable-background:new 0 0 368.5 368.5;" xml:space="preserve">
<style type="text/css">
	.st0{fill:#E0E0E0;}
	.st1{fill:#FDFFFF;}
	.st2{fill:#E6E6E4;}
	.st3{fill:#287A99;}
	.st4{fill:#35A8E0;}
	.st5{fill:#2F8AAF;}
	.st6{display:none;}
	.st7{display:inline;}
</style>
<g id="middle_layer_1_">
	<polygon class="st0" points="184.2,145.7 217.4,164.9 184.3,184 151.1,164.9 	"/>
	<polygon class="st1" points="151.1,164.9 151.2,203.2 184.3,222.3 184.3,184 	"/>
	<polygon class="st2" points="184.3,222.3 184.3,184 217.4,164.9 217.4,203.2 	"/>
	<polygon class="st0" points="224.9,169.2 258.1,188.4 225,207.5 191.8,188.4 	"/>
	<polygon class="st1" points="191.8,188.4 191.9,226.6 225,245.8 225,207.5 	"/>
	<polygon class="st2" points="225,245.8 225,207.5 258.1,188.4 258.1,226.7 	"/>
	<polygon class="st0" points="265.5,192.6 298.7,211.9 265.7,231 232.4,211.9 	"/>
	<polygon class="st1" points="232.4,211.9 232.5,250.1 265.7,269.2 265.7,231 	"/>
	<polygon class="st2" points="265.7,269.2 265.7,231 298.7,211.9 298.7,250.1 	"/>
	<polygon class="st0" points="306.2,216.1 339.4,235.4 306.3,254.5 273.1,235.4 	"/>
	<polygon class="st1" points="273.1,235.4 273.2,273.6 306.3,292.7 306.3,254.5 	"/>
	<polygon class="st2" points="306.3,292.7 306.3,254.5 339.4,235.4 339.4,273.6 	"/>
	<polygon class="st0" points="184.2,98.9 217.4,118.2 184.3,137.3 151.1,118.2 	"/>
	<polygon class="st1" points="151.1,118.2 151.2,156.4 184.3,175.5 184.3,137.3 	"/>
	<polygon class="st2" points="184.3,175.5 184.3,137.3 217.4,118.2 217.4,156.4 	"/>
	<polygon class="st0" points="224.9,122.4 258.1,141.7 225,160.7 191.8,141.7 	"/>
	<polygon class="st1" points="191.8,141.7 191.9,179.9 225,199 225,160.7 	"/>
	<polygon class="st2" points="225,199 225,160.7 258.1,141.7 258.1,179.9 	"/>
	<polygon class="st0" points="265.5,145.9 298.7,165.1 265.7,184.2 232.4,165.1 	"/>
	<polygon class="st1" points="232.4,165.1 232.5,203.3 265.7,222.5 265.7,184.2 	"/>
	<polygon class="st2" points="265.7,222.5 265.7,184.2 298.7,165.1 298.7,203.4 	"/>
	<polygon class="st0" points="306.2,169.3 339.4,188.6 306.3,207.7 273.1,188.6 	"/>
	<polygon class="st1" points="273.1,188.6 273.2,226.8 306.3,245.9 306.3,207.7 	"/>
	<polygon class="st2" points="306.3,245.9 306.3,207.7 339.4,188.6 339.4,226.8 	"/>
	<polygon class="st0" points="184.2,52.1 217.4,71.4 184.3,90.5 151.1,71.4 	"/>
	<polygon class="st1" points="151.1,71.4 151.2,109.6 184.3,128.7 184.3,90.5 	"/>
	<polygon class="st2" points="184.3,128.7 184.3,90.5 217.4,71.4 217.4,109.6 	"/>
	<polygon class="st0" points="224.9,75.6 258.1,94.9 225,114 191.8,94.9 	"/>
	<polygon class="st1" points="191.8,94.9 191.9,133.1 225,152.2 225,114 	"/>
	<polygon class="st2" points="225,152.2 225,114 258.1,94.9 258.1,133.1 	"/>
	<polygon class="st0" points="265.5,99.1 298.7,118.4 265.7,137.4 232.4,118.4 	"/>
	<polygon class="st1" points="232.4,118.4 232.5,156.6 265.7,175.7 265.7,137.4 	"/>
	<polygon class="st2" points="265.7,175.7 265.7,137.4 298.7,118.4 298.7,156.6 	"/>
	<polygon class="st0" points="306.2,122.6 339.4,141.8 306.3,160.9 273.1,141.8 	"/>
	<polygon class="st1" points="273.1,141.8 273.2,180 306.3,199.2 306.3,160.9 	"/>
	<polygon class="st2" points="306.3,199.2 306.3,160.9 339.4,141.8 339.4,180.1 	"/>
	<polygon class="st0" points="184.2,5.4 217.4,24.6 184.3,43.7 151.1,24.6 	"/>
	<polygon class="st1" points="151.1,24.6 151.2,62.8 184.3,82 184.3,43.7 	"/>
	<polygon class="st2" points="184.3,82 184.3,43.7 217.4,24.6 217.4,62.9 	"/>
	<polygon class="st0" points="224.9,28.8 258.1,48.1 225,67.2 191.8,48.1 	"/>
	<polygon class="st1" points="191.8,48.1 191.9,86.3 225,105.4 225,67.2 	"/>
	<polygon class="st2" points="225,105.4 225,67.2 258.1,48.1 258.1,86.3 	"/>
	<polygon class="st0" points="265.5,52.3 298.7,71.6 265.7,90.7 232.4,71.6 	"/>
	<polygon class="st1" points="232.4,71.6 232.5,109.8 265.7,128.9 265.7,90.7 	"/>
	<polygon class="st2" points="265.7,128.9 265.7,90.7 298.7,71.6 298.7,109.8 	"/>
	<polygon class="st0" points="306.2,75.8 339.4,95.1 306.3,114.1 273.1,95.1 	"/>
	<polygon class="st1" points="273.1,95.1 273.2,133.3 306.3,152.4 306.3,114.1 	"/>
	<polygon class="st2" points="306.3,152.4 306.3,114.1 339.4,95.1 339.4,133.3 	"/>
	<polygon class="st0" points="143.5,169.2 176.7,188.4 143.7,207.5 110.4,188.4 	"/>
	<polygon class="st1" points="110.4,188.4 110.6,226.6 143.7,245.8 143.7,207.5 	"/>
	<polygon class="st2" points="143.7,245.8 143.7,207.5 176.7,188.4 176.7,226.7 	"/>
	<polygon class="st3" points="184.2,192.6 217.4,211.9 184.3,231 151.1,211.9 	"/>
	<polygon class="st4" points="151.1,211.9 151.2,250.1 184.3,269.2 184.3,231 	"/>
	<polygon class="st5" points="184.3,269.2 184.3,231 217.4,211.9 217.4,250.1 	"/>
	<polygon class="st3" points="224.9,216.1 258.1,235.4 225,254.5 191.8,235.4 	"/>
	<polygon class="st4" points="191.8,235.4 191.9,273.6 225,292.7 225,254.5 	"/>
	<polygon class="st5" points="225,292.7 225,254.5 258.1,235.4 258.1,273.6 	"/>
	<polygon class="st3" points="265.5,239.6 298.7,258.8 265.7,277.9 232.4,258.8 	"/>
	<polygon class="st4" points="232.4,258.8 232.5,297.1 265.7,316.2 265.7,277.9 	"/>
	<polygon class="st5" points="265.7,316.2 265.7,277.9 298.7,258.8 298.7,297.1 	"/>
	<polygon class="st0" points="143.5,122.4 176.7,141.7 143.7,160.7 110.4,141.7 	"/>
	<polygon class="st1" points="110.4,141.7 110.6,179.9 143.7,199 143.7,160.7 	"/>
	<polygon class="st2" points="143.7,199 143.7,160.7 176.7,141.7 176.7,179.9 	"/>
	<polygon class="st3" points="184.2,145.9 217.4,165.1 184.3,184.2 151.1,165.1 	"/>
	<polygon class="st4" points="151.1,165.1 151.2,203.3 184.3,222.5 184.3,184.2 	"/>
	<polygon class="st5" points="184.3,222.5 184.3,184.2 217.4,165.1 217.4,203.4 	"/>
	<polygon class="st3" points="224.9,169.3 258.1,188.6 225,207.7 191.8,188.6 	"/>
	<polygon class="st4" points="191.8,188.6 191.9,226.8 225,245.9 225,207.7 	"/>
	<polygon class="st5" points="225,245.9 225,207.7 258.1,188.6 258.1,226.8 	"/>
	<polygon class="st3" points="265.5,192.8 298.7,212.1 265.7,231.2 232.4,212.1 	"/>
	<polygon class="st4" points="232.4,212.1 232.5,250.3 265.7,269.4 265.7,231.2 	"/>
	<polygon class="st5" points="265.7,269.4 265.7,231.2 298.7,212.1 298.7,250.3 	"/>
	<polygon class="st0" points="143.5,75.6 176.7,94.9 143.7,114 110.4,94.9 	"/>
	<polygon class="st1" points="110.4,94.9 110.6,133.1 143.7,152.2 143.7,114 	"/>
	<polygon class="st2" points="143.7,152.2 143.7,114 176.7,94.9 176.7,133.1 	"/>
	<polygon class="st3" points="184.2,99.1 217.4,118.4 184.3,137.4 151.1,118.4 	"/>
	<polygon class="st4" points="151.1,118.4 151.2,156.6 184.3,175.7 184.3,137.4 	"/>
	<polygon class="st5" points="184.3,175.7 184.3,137.4 217.4,118.4 217.4,156.6 	"/>
	<polygon class="st3" points="224.9,122.6 258.1,141.8 225,160.9 191.8,141.8 	"/>
	<polygon class="st4" points="191.8,141.8 191.9,180 225,199.2 225,160.9 	"/>
	<polygon class="st5" points="225,199.2 225,160.9 258.1,141.8 258.1,180.1 	"/>
	<polygon class="st3" points="265.5,146 298.7,165.3 265.7,184.4 232.4,165.3 	"/>
	<polygon class="st4" points="232.4,165.3 232.5,203.5 265.7,222.6 265.7,184.4 	"/>
	<polygon class="st5" points="265.7,222.6 265.7,184.4 298.7,165.3 298.7,203.5 	"/>
	<polygon class="st0" points="143.5,28.8 176.7,48.1 143.7,67.2 110.4,48.1 	"/>
	<polygon class="st1" points="110.4,48.1 110.6,86.3 143.7,105.4 143.7,67.2 	"/>
	<polygon class="st2" points="143.7,105.4 143.7,67.2 176.7,48.1 176.7,86.3 	"/>
	<polygon class="st3" points="184.2,52.3 217.4,71.6 184.3,90.7 151.1,71.6 	"/>
	<polygon class="st4" points="151.1,71.6 151.2,109.8 184.3,128.9 184.3,90.7 	"/>
	<polygon class="st5" points="184.3,128.9 184.3,90.7 217.4,71.6 217.4,109.8 	"/>
	<polygon class="st3" points="224.9,75.8 258.1,95.1 225,114.1 191.8,95.1 	"/>
	<polygon class="st4" points="191.8,95.1 191.9,133.3 225,152.4 225,114.1 	"/>
	<polygon class="st5" points="225,152.4 225,114.1 258.1,95.1 258.1,133.3 	"/>
	<polygon class="st3" points="265.5,99.3 298.7,118.5 265.7,137.6 232.4,118.5 	"/>
	<polygon class="st4" points="232.4,118.5 232.5,156.7 265.7,175.9 265.7,137.6 	"/>
	<polygon class="st5" points="265.7,175.9 265.7,137.6 298.7,118.5 298.7,156.8 	"/>
	<polygon class="st0" points="102.9,192.6 136.1,211.9 103,231 69.8,211.9 	"/>
	<polygon class="st1" points="69.8,211.9 69.9,250.1 103,269.2 103,231 	"/>
	<polygon class="st2" points="103,269.2 103,231 136.1,211.9 136.1,250.1 	"/>
	<polygon class="st3" points="143.5,216.1 176.7,235.4 143.7,254.5 110.4,235.4 	"/>
	<polygon class="st4" points="110.4,235.4 110.6,273.6 143.7,292.7 143.7,254.5 	"/>
	<polygon class="st5" points="143.7,292.7 143.7,254.5 176.7,235.4 176.7,273.6 	"/>
	<polygon class="st0" points="102.9,145.9 136.1,165.1 103,184.2 69.8,165.1 	"/>
	<polygon class="st1" points="69.8,165.1 69.9,203.3 103,222.5 103,184.2 	"/>
	<polygon class="st2" points="103,222.5 103,184.2 136.1,165.1 136.1,203.4 	"/>
	<polygon class="st3" points="143.5,169.3 176.7,188.6 143.7,207.7 110.4,188.6 	"/>
	<polygon class="st4" points="110.4,188.6 110.6,226.8 143.7,245.9 143.7,207.7 	"/>
	<polygon class="st5" points="143.7,245.9 143.7,207.7 176.7,188.6 176.7,226.8 	"/>
	<polygon class="st0" points="102.9,99.1 136.1,118.4 103,137.4 69.8,118.4 	"/>
	<polygon class="st1" points="69.8,118.4 69.9,156.6 103,175.7 103,137.4 	"/>
	<polygon class="st2" points="103,175.7 103,137.4 136.1,118.4 136.1,156.6 	"/>
	<polygon class="st3" points="143.5,122.6 176.7,141.8 143.7,160.9 110.4,141.8 	"/>
	<polygon class="st4" points="110.4,141.8 110.6,180 143.7,199.2 143.7,160.9 	"/>
	<polygon class="st5" points="143.7,199.2 143.7,160.9 176.7,141.8 176.7,180.1 	"/>
	<polygon class="st0" points="102.9,52.3 136.1,71.6 103,90.7 69.8,71.6 	"/>
	<polygon class="st1" points="69.8,71.6 69.9,109.8 103,128.9 103,90.7 	"/>
	<polygon class="st2" points="103,128.9 103,90.7 136.1,71.6 136.1,109.8 	"/>
	<polygon class="st3" points="143.5,75.8 176.7,95.1 143.7,114.1 110.4,95.1 	"/>
	<polygon class="st4" points="110.4,95.1 110.6,133.3 143.7,152.4 143.7,114.1 	"/>
	<polygon class="st5" points="143.7,152.4 143.7,114.1 176.7,95.1 176.7,133.3 	"/>
	<polygon class="st0" points="62.2,216.1 95.4,235.4 62.4,254.5 29.1,235.4 	"/>
	<polygon class="st1" points="29.1,235.4 29.2,273.6 62.4,292.7 62.4,254.5 	"/>
	<polygon class="st2" points="62.4,292.7 62.4,254.5 95.4,235.4 95.4,273.6 	"/>
	<polygon class="st3" points="102.9,239.6 136.1,258.8 103,277.9 69.8,258.8 	"/>
	<polygon class="st4" points="69.8,258.8 69.9,297.1 103,316.2 103,277.9 	"/>
	<polygon class="st5" points="103,316.2 103,277.9 136.1,258.8 136.1,297.1 	"/>
	<polygon class="st0" points="62.2,169.3 95.4,188.6 62.4,207.7 29.1,188.6 	"/>
	<polygon class="st1" points="29.1,188.6 29.2,226.8 62.4,245.9 62.4,207.7 	"/>
	<polygon class="st2" points="62.4,245.9 62.4,207.7 95.4,188.6 95.4,226.8 	"/>
	<polygon class="st3" points="102.9,192.8 136.1,212.1 103,231.2 69.8,212.1 	"/>
	<polygon class="st4" points="69.8,212.1 69.9,250.3 103,269.4 103,231.2 	"/>
	<polygon class="st5" points="103,269.4 103,231.2 136.1,212.1 136.1,250.3 	"/>
	<polygon class="st0" points="62.2,122.6 95.4,141.8 62.4,160.9 29.1,141.8 	"/>
	<polygon class="st1" points="29.1,141.8 29.2,180 62.4,199.2 62.4,160.9 	"/>
	<polygon class="st2" points="62.4,199.2 62.4,160.9 95.4,141.8 95.4,180.1 	"/>
	<polygon class="st3" points="102.9,146 136.1,165.3 103,184.4 69.8,165.3 	"/>
	<polygon class="st4" points="69.8,165.3 69.9,203.5 103,222.6 103,184.4 	"/>
	<polygon class="st5" points="103,222.6 103,184.4 136.1,165.3 136.1,203.5 	"/>
	<polygon class="st0" points="62.2,75.8 95.4,95.1 62.4,114.1 29.1,95.1 	"/>
	<polygon class="st1" points="29.1,95.1 29.2,133.3 62.4,152.4 62.4,114.1 	"/>
	<polygon class="st2" points="62.4,152.4 62.4,114.1 95.4,95.1 95.4,133.3 	"/>
	<polygon class="st3" points="102.9,99.3 136.1,118.5 103,137.6 69.8,118.5 	"/>
	<polygon class="st4" points="69.8,118.5 69.9,156.7 103,175.9 103,137.6 	"/>
	<polygon class="st5" points="103,175.9 103,137.6 136.1,118.5 136.1,156.8 	"/>
</g>
<g id="front">
	<polygon class="st0" points="184.2,239.6 217.4,258.8 184.3,277.9 151.1,258.8 	"/>
	<polygon class="st1" points="151.1,258.8 151.2,297.1 184.3,316.2 184.3,277.9 	"/>
	<polygon class="st2" points="184.3,316.2 184.3,277.9 217.4,258.8 217.4,297.1 	"/>
	<polygon class="st0" points="224.9,263.1 258.1,282.3 225,301.4 191.8,282.3 	"/>
	<polygon class="st1" points="191.8,282.3 191.9,320.5 225,339.7 225,301.4 	"/>
	<polygon class="st2" points="225,339.7 225,301.4 258.1,282.3 258.1,320.6 	"/>
	<polygon class="st0" points="184.2,192.8 217.4,212.1 184.3,231.2 151.1,212.1 	"/>
	<polygon class="st1" points="151.1,212.1 151.2,250.3 184.3,269.4 184.3,231.2 	"/>
	<polygon class="st2" points="184.3,269.4 184.3,231.2 217.4,212.1 217.4,250.3 	"/>
	<polygon class="st0" points="224.9,216.3 258.1,235.6 225,254.6 191.8,235.6 	"/>
	<polygon class="st1" points="191.8,235.6 191.9,273.8 225,292.9 225,254.6 	"/>
	<polygon class="st2" points="225,292.9 225,254.6 258.1,235.6 258.1,273.8 	"/>
	<polygon class="st0" points="143.5,263.1 176.7,282.3 143.7,301.4 110.4,282.3 	"/>
	<polygon class="st1" points="110.4,282.3 110.6,320.5 143.7,339.7 143.7,301.4 	"/>
	<polygon class="st2" points="143.7,339.7 143.7,301.4 176.7,282.3 176.7,320.6 	"/>
	<polygon class="st0" points="184.2,286.5 217.4,305.8 184.3,324.9 151.1,305.8 	"/>
	<polygon class="st1" points="151.1,305.8 151.2,344 184.3,363.1 184.3,324.9 	"/>
	<polygon class="st2" points="184.3,363.1 184.3,324.9 217.4,305.8 217.4,344 	"/>
	<polygon class="st0" points="143.5,216.3 176.7,235.6 143.7,254.6 110.4,235.6 	"/>
	<polygon class="st1" points="110.4,235.6 110.6,273.8 143.7,292.9 143.7,254.6 	"/>
	<polygon class="st2" points="143.7,292.9 143.7,254.6 176.7,235.6 176.7,273.8 	"/>
</g>
<g id="guides" class="st6">
	<g class="st7">
	</g>
	<g class="st7">
	</g>
	<g class="st7">
	</g>
	<g class="st7">
	</g>
	<g class="st7">
	</g>
	<g class="st7">
	</g>
	<g class="st7">
	</g>
	<g class="st7">
	</g>
</g>
</svg>
