<?xml version="1.0" encoding="utf-8"?>
<!-- Generator: Adobe Illustrator 23.0.1, SVG Export Plug-In . SVG Version: 6.00 Build 0)  -->
<svg version="1.1" id="Base" xmlns="http://www.w3.org/2000/svg" xmlns:xlink="http://www.w3.org/1999/xlink" x="0px" y="0px"
	 viewBox="0 0 500 520" style="enable-background:new 0 0 500 520;" xml:space="preserve">
<style type="text/css">
	.st0{fill:#E1E1E0;}
	.st1{fill:none;stroke:#E1E1E0;stroke-width:2;stroke-miterlimit:10;}
	.st2{fill:#13110C;}
</style>
<g>
	<path class="st0" d="M258.7,47.7c-4.8-2.8-12.6-2.8-17.3,0L70.5,146.4c-4.8,2.8-8.7,9.5-8.7,15v197.3c0,5.5,3.9,12.2,8.7,15
		l170.9,98.6c4.8,2.8,12.6,2.8,17.3,0l170.9-98.6c4.8-2.8,8.7-9.5,8.7-15V161.4c0-5.5-3.9-12.2-8.7-15L258.7,47.7z"/>
</g>
<g>
	<path class="st1" d="M258.7,4.2c-4.8-2.7-12.6-2.7-17.3,0L32.8,124.6c-4.8,2.8-8.7,9.5-8.7,15v240.8c0,5.5,3.9,12.2,8.7,15
		l208.5,120.4c4.8,2.8,12.6,2.8,17.3,0l208.5-120.4c4.8-2.8,8.7-9.5,8.7-15V139.6c0-5.5-3.9-12.2-8.7-15L258.7,4.2z"/>
</g>
<g>
	<path class="st1" d="M258.7,26c-4.8-2.8-12.6-2.8-17.3,0L51.7,135.5c-4.8,2.8-8.7,9.5-8.7,15v219c0,5.5,3.9,12.2,8.7,15L241.3,494
		c4.8,2.8,12.6,2.8,17.3,0l189.7-109.5c4.8-2.8,8.7-9.5,8.7-15v-219c0-5.5-3.9-12.2-8.7-15L258.7,26z"/>
</g>
<g>
	<path d="M94.4,334.8h10c6.5,0,11.2,2,11.2,7.7c0,3-1.7,5.9-5.4,6.8v0.2c4.5,0.8,7,3.2,7,7.4c0,6.3-5.1,9.2-12,9.2H94.4V334.8z
		 M103.9,347.8c4.4,0,6.2-1.7,6.2-4.6c0-2.9-2.1-4.1-6.1-4.1H100v8.7H103.9z M104.7,361.9c4.6,0,7.2-1.7,7.2-5.3
		c0-3.3-2.5-4.8-7.2-4.8H100v10.1H104.7z"/>
	<path d="M122.6,332.3h5.5v28.1c0,1.3,0.6,1.8,1.2,1.8c0.2,0,0.4,0,0.9-0.1l0.7,4.1c-0.7,0.3-1.6,0.5-2.9,0.5
		c-3.9,0-5.4-2.5-5.4-6.6V332.3z"/>
	<path d="M145.2,342c5.9,0,11.2,4.5,11.2,12.4c0,7.8-5.3,12.3-11.2,12.3c-5.9,0-11.2-4.5-11.2-12.3C134,346.6,139.4,342,145.2,342z
		 M145.2,362.3c3.5,0,5.6-3.1,5.6-7.8c0-4.8-2.1-7.9-5.6-7.9s-5.5,3.1-5.5,7.9C139.7,359.1,141.8,362.3,145.2,362.3z"/>
	<path d="M172.2,342c3,0,5.3,1.2,6.9,2.7l-2.6,3.5c-1.2-1.1-2.5-1.7-4-1.7c-3.8,0-6.4,3.1-6.4,7.9c0,4.7,2.6,7.8,6.3,7.8
		c1.9,0,3.6-1,4.8-2l2.3,3.5c-2.2,2-5,3-7.7,3c-6.4,0-11.4-4.5-11.4-12.3C160.4,346.6,165.9,342,172.2,342z"/>
	<path d="M184.1,332.3h5.4v21.2h0.1l8.7-10.8h6l-8.1,9.6l8.9,14h-6l-6-10.2l-3.7,4.2v6h-5.4V332.3z"/>
	<path d="M204.5,352.1H216v4h-11.4V352.1z"/>
	<path d="M222,334.8h10.6c6.9,0,12,2.4,12,9.7c0,7-5.2,10.2-12,10.2h-5v11.5H222V334.8z M232.1,350.2c4.7,0,6.9-1.9,6.9-5.7
		c0-3.9-2.4-5.2-6.9-5.2h-4.6v10.9H232.1z"/>
	<path d="M249.7,342.6h5.5v14.1c0,3.9,1.1,5.3,3.6,5.3c2.1,0,3.5-1,5.2-3.3v-16.1h5.5v23.6h-4.5l-0.4-3.5h-0.1c-2.1,2.4-4.4,4-7.6,4
		c-5,0-7.2-3.4-7.2-9.4V342.6z"/>
	<path d="M276.6,342.6h4.6l0.4,4.2h0.2c1.7-3.1,4.2-4.8,6.7-4.8c1.2,0,2,0.1,2.7,0.5l-1,4.8c-0.8-0.2-1.4-0.4-2.4-0.4
		c-1.9,0-4.1,1.3-5.6,4.8v14.4h-5.5V342.6z"/>
	<path d="M304.3,342c3,0,5.3,1.2,6.9,2.7l-2.6,3.5c-1.2-1.1-2.5-1.7-4-1.7c-3.8,0-6.4,3.1-6.4,7.9c0,4.7,2.6,7.8,6.3,7.8
		c1.9,0,3.6-1,4.8-2l2.3,3.5c-2.2,2-5,3-7.7,3c-6.4,0-11.4-4.5-11.4-12.3C292.5,346.6,298,342,304.3,342z"/>
	<path d="M316.2,332.3h5.5v8.7l-0.2,4.6c2-1.9,4.3-3.6,7.5-3.6c5,0,7.2,3.4,7.2,9.4v14.8h-5.5v-14.1c0-3.9-1.1-5.3-3.7-5.3
		c-2.1,0-3.4,1-5.4,2.9v16.5h-5.5V332.3z"/>
	<path d="M355.8,351.1c0-2.5-1.1-4.6-4.3-4.6c-2.4,0-4.6,1.1-6.6,2.3l-2-3.7c2.6-1.6,5.9-3.1,9.6-3.1c5.9,0,8.8,3.6,8.8,10.2v14
		h-4.5l-0.4-2.6h-0.1c-2.1,1.8-4.5,3.2-7.3,3.2c-4.1,0-7-2.8-7-6.9C342,354.8,346.2,352.2,355.8,351.1z M350.7,362.4
		c1.9,0,3.4-1,5.1-2.6v-5.3c-6.4,0.8-8.5,2.5-8.5,4.8C347.3,361.5,348.7,362.4,350.7,362.4z"/>
	<path d="M368.3,359.9c2.1,1.6,4.1,2.6,6.5,2.6c2.5,0,3.7-1.2,3.7-2.8c0-2-2.5-2.8-5-3.8c-3.1-1.2-6.6-2.9-6.6-6.9
		c0-4.1,3.3-7.1,8.6-7.1c3.3,0,5.9,1.3,7.8,2.8l-2.5,3.4c-1.6-1.2-3.3-2-5.2-2c-2.4,0-3.5,1.1-3.5,2.6c0,1.9,2.4,2.6,4.9,3.5
		c3.2,1.2,6.8,2.7,6.8,7.2c0,4-3.2,7.3-9.2,7.3c-3.2,0-6.6-1.4-8.9-3.3L368.3,359.9z"/>
	<path d="M398.1,342c6.4,0,9.7,4.6,9.7,11.2c0,1.1-0.1,2-0.2,2.6h-15c0.5,4.3,3.2,6.7,7,6.7c2,0,3.7-0.6,5.5-1.7l1.9,3.5
		c-2.3,1.5-5.1,2.5-8.1,2.5c-6.5,0-11.6-4.6-11.6-12.3C387.2,346.7,392.6,342,398.1,342z M403,352.3c0-3.7-1.6-6-4.8-6
		c-2.8,0-5.2,2.1-5.7,6H403z"/>
</g>
<path class="st2" d="M315.4,181.9H185.6c-7.2,0-13,5.8-13,13v95.3c0,7.2,5.8,13,13,13h129.9c7.2,0,13-5.8,13-13v-95.3
	C328.5,187.7,322.6,181.9,315.4,181.9L315.4,181.9z M313.8,290.1H187.2c-0.9,0-1.6-0.7-1.6-1.6v-92c0-0.9,0.7-1.6,1.6-1.6h126.6
	c0.9,0,1.6,0.7,1.6,1.6v92C315.4,289.4,314.7,290.1,313.8,290.1L313.8,290.1z M224.5,271.7v2.2c0,1.8-1.5,3.2-3.2,3.2h-19.5
	c-1.8,0-3.2-1.5-3.2-3.2v-2.2c0-1.8,1.5-3.2,3.2-3.2h19.5C223.1,268.5,224.5,269.9,224.5,271.7z M276.5,271.7v2.2
	c0,1.8-1.5,3.2-3.2,3.2h-36.8c-1.8,0-3.2-1.5-3.2-3.2v-2.2c0-1.8,1.5-3.2,3.2-3.2h36.8C275,268.5,276.5,269.9,276.5,271.7z
	 M242.9,259.8h-15.2c-1.8,0-3.2-1.5-3.2-3.2v-10.8c0-1.8,1.5-3.2,3.2-3.2h15.2c1.8,0,3.2,1.5,3.2,3.2v10.8
	C246.2,258.4,244.7,259.8,242.9,259.8z M250.5,256.6v-10.8c0-1.8,1.5-3.2,3.2-3.2h15.2c1.8,0,3.2,1.5,3.2,3.2v10.8
	c0,1.8-1.5,3.2-3.2,3.2h-15.2C252,259.8,250.5,258.4,250.5,256.6z M198.5,256.6v-10.8c0-1.8,1.5-3.2,3.2-3.2h15.2
	c1.8,0,3.2,1.5,3.2,3.2v10.8c0,1.8-1.5,3.2-3.2,3.2h-15.2C200,259.8,198.5,258.4,198.5,256.6z M302.5,245.7v10.8
	c0,1.8-1.5,3.2-3.2,3.2h-19.5c-1.8,0-3.2-1.5-3.2-3.2v-10.8c0-1.8,1.5-3.2,3.2-3.2h19.5C301,242.5,302.5,244,302.5,245.7z
	 M302.5,210v13c0,3.6-2.9,6.5-6.5,6.5h-21.7c-3.6,0-6.5-2.9-6.5-6.5v-13c0-3.6,2.9-6.5,6.5-6.5H296
	C299.6,203.5,302.5,206.4,302.5,210z"/>
</svg>
