<?xml version="1.0" encoding="utf-8"?>
<!-- Generator: Adobe Illustrator 23.0.1, SVG Export Plug-In . SVG Version: 6.00 Build 0)  -->
<svg version="1.1" id="Base" xmlns="http://www.w3.org/2000/svg" xmlns:xlink="http://www.w3.org/1999/xlink" x="0px" y="0px"
	 viewBox="0 0 500 520" style="enable-background:new 0 0 500 520;" xml:space="preserve">
<style type="text/css">
	.st0{fill:#E1E1E0;}
	.st1{fill:none;stroke:#E1E1E0;stroke-width:2;stroke-miterlimit:10;}
	.st2{fill:#13110C;}
</style>
<g>
	<path class="st0" d="M258.7,47.7c-4.8-2.8-12.6-2.8-17.3,0L70.5,146.4c-4.8,2.8-8.7,9.5-8.7,15v197.3c0,5.5,3.9,12.2,8.7,15
		l170.9,98.6c4.8,2.8,12.6,2.8,17.3,0l170.9-98.6c4.8-2.8,8.7-9.5,8.7-15V161.4c0-5.5-3.9-12.2-8.7-15L258.7,47.7z"/>
</g>
<g>
	<path class="st1" d="M258.7,4.2c-4.8-2.7-12.6-2.7-17.3,0L32.8,124.6c-4.8,2.8-8.7,9.5-8.7,15v240.8c0,5.5,3.9,12.2,8.7,15
		l208.5,120.4c4.8,2.8,12.6,2.8,17.3,0l208.5-120.4c4.8-2.8,8.7-9.5,8.7-15V139.6c0-5.5-3.9-12.2-8.7-15L258.7,4.2z"/>
</g>
<g>
	<path class="st1" d="M258.7,26c-4.8-2.8-12.6-2.8-17.3,0L51.7,135.5c-4.8,2.8-8.7,9.5-8.7,15v219c0,5.5,3.9,12.2,8.7,15L241.3,494
		c4.8,2.8,12.6,2.8,17.3,0l189.7-109.5c4.8-2.8,8.7-9.5,8.7-15v-219c0-5.5-3.9-12.2-8.7-15L258.7,26z"/>
</g>
<g>
	<path d="M152.5,334.8h10c6.5,0,11.2,2,11.2,7.7c0,3-1.7,5.9-5.4,6.8v0.2c4.5,0.8,7,3.2,7,7.4c0,6.3-5.1,9.2-12,9.2h-10.8V334.8z
		 M162,347.8c4.4,0,6.2-1.7,6.2-4.6c0-2.9-2.1-4.1-6.1-4.1H158v8.7H162z M162.7,361.9c4.6,0,7.2-1.7,7.2-5.3c0-3.3-2.5-4.8-7.2-4.8
		H158v10.1H162.7z"/>
	<path d="M180.6,332.3h5.5v28.1c0,1.3,0.6,1.8,1.2,1.8c0.2,0,0.4,0,0.9-0.1l0.7,4.1c-0.7,0.3-1.6,0.5-2.9,0.5
		c-3.9,0-5.4-2.5-5.4-6.6V332.3z"/>
	<path d="M203.3,342c5.9,0,11.2,4.5,11.2,12.4c0,7.8-5.3,12.3-11.2,12.3c-5.9,0-11.2-4.5-11.2-12.3C192.1,346.6,197.4,342,203.3,342
		z M203.3,362.3c3.5,0,5.6-3.1,5.6-7.8c0-4.8-2.1-7.9-5.6-7.9s-5.5,3.1-5.5,7.9C197.8,359.1,199.8,362.3,203.3,362.3z"/>
	<path d="M230.3,342c3,0,5.3,1.2,6.9,2.7l-2.6,3.5c-1.2-1.1-2.5-1.7-4-1.7c-3.8,0-6.4,3.1-6.4,7.9c0,4.7,2.6,7.8,6.3,7.8
		c1.9,0,3.6-1,4.8-2l2.3,3.5c-2.2,2-5,3-7.7,3c-6.4,0-11.4-4.5-11.4-12.3C218.5,346.6,224,342,230.3,342z"/>
	<path d="M242.2,332.3h5.4v21.2h0.1l8.7-10.8h6l-8.1,9.6l8.9,14h-6l-6-10.2l-3.7,4.2v6h-5.4V332.3z"/>
	<path d="M262.6,352.1H274v4h-11.4V352.1z"/>
	<path d="M280,334.8h10.6c6.9,0,12,2.4,12,9.7c0,7-5.2,10.2-12,10.2h-5v11.5H280V334.8z M290.2,350.2c4.7,0,6.9-1.9,6.9-5.7
		c0-3.9-2.4-5.2-6.9-5.2h-4.6v10.9H290.2z"/>
	<path d="M319,351.1c0-2.5-1.1-4.6-4.3-4.6c-2.4,0-4.6,1.1-6.6,2.3l-2-3.7c2.6-1.6,5.9-3.1,9.6-3.1c5.9,0,8.8,3.6,8.8,10.2v14H320
		l-0.4-2.6h-0.1c-2.1,1.8-4.5,3.2-7.3,3.2c-4.1,0-7-2.8-7-6.9C305.2,354.8,309.4,352.2,319,351.1z M313.9,362.4c1.9,0,3.4-1,5.1-2.6
		v-5.3c-6.4,0.8-8.5,2.5-8.5,4.8C310.5,361.5,311.9,362.4,313.9,362.4z"/>
	<path d="M332.5,371.4c2.5,0,3.9-1.7,4.7-4l0.4-1.5l-9.3-23.3h5.6l4.1,11.6c0.7,2.1,1.3,4.4,2.1,6.6h0.2c0.6-2.2,1.2-4.5,1.8-6.6
		l3.6-11.6h5.3l-8.5,24.6c-2,5.3-4.4,8.6-9.6,8.6c-1.3,0-2.2-0.2-3.1-0.5l1-4.3C331.2,371.2,331.9,371.4,332.5,371.4z"/>
</g>
<path class="st2" d="M321,195.7H180.7c-4.3,0-7.8,3.5-7.8,7.8v78c0,4.3,3.5,7.8,7.8,7.8H321c4.3,0,7.8-3.5,7.8-7.8v-78
	C328.8,199.2,325.3,195.7,321,195.7z M317.1,262c-8.6,0-15.6,7-15.6,15.6H200.2c0-8.6-7-15.6-15.6-15.6v-39c8.6,0,15.6-7,15.6-15.6
	h101.3c0,8.6,7,15.6,15.6,15.6V262z M250.8,219.1c-10.8,0-19.5,10.5-19.5,23.4c0,12.9,8.7,23.4,19.5,23.4
	c10.8,0,19.5-10.5,19.5-23.4C270.3,229.6,261.6,219.1,250.8,219.1z"/>
</svg>
